:version 1.10
:name ASF
:units
  mass 1
  length 1
  angle deg
:documentation
  ASF file generated by Kaydara
:root
  axis xyz
  order  tx ty tz rx ry rz
  position 0 0 0
  orientation 0 0 0
:bonedata
  begin
    id 1
    name SpineDummy
    direction 0.999998 -0.00179978 1.38929e-006
    length 3.60008
    axis 0 0 0 xyz
  end
  begin
    id 2
    name Spine
    direction 0.964365 0.262802 0.0305839
    length 8.13928
    axis 1.33928 -1.75354 15.2838 xyz
    dof rx ry rz
  end
  begin
    id 3
    name Spine1
    direction 0.811168 0.572065 0.12144
    length 7.14954
    axis 2.2224 -6.9761 35.2157 xyz
    dof rx ry rz
  end
  begin
    id 4
    name Neck
    direction 0 0 0
    length 0
    axis 2.2224 -6.9761 35.2157 xyz
    dof rx ry rz
  end
  begin
    id 5
    name HeadDummy
    direction 0.810939 0.572387 0.121455
    length 3.55534
    axis 2.2224 -6.9761 35.2157 xyz
  end
  begin
    id 6
    name Head
    direction 0.998226 -0.000232542 0.0595419
    length 7.35666
    axis -3.03688 -3.41352 -0.0133467 xyz
    dof rx ry rz
  end
  begin
    id 7
    name R_ClavicleDummy
    direction 0.531669 -0.194489 -0.824319
    length 2.49392
    axis 2.2224 -6.9761 35.2157 xyz
  end
  begin
    id 8
    name R_Clavicle
    direction -0.155119 0.0480802 -0.986725
    length 4.485
    axis -54.2764 80.6538 162.779 xyz
    dof rx ry rz
  end
  begin
    id 9
    name R_UpperArm
    direction -0.955567 0.200068 -0.216484
    length 10.1122
    axis -72.9943 12.5026 168.175 xyz
    dof rx ry rz
  end
  begin
    id 10
    name R_Forearm
    direction -0.61433 0.385743 0.688332
    length 9.39148
    axis -117.015 -43.4982 147.875 xyz
    dof rx ry rz
  end
  begin
    id 11
    name R_Hand
    direction -0.699429 0.0170333 0.714499
    length 3.66324
    axis -45.0303 -36.7097 175.478 xyz
    dof rx ry rz
  end
  begin
    id 12
    name L_ClavicleDummy
    direction 0.40287 -0.36502 0.839319
    length 2.49392
    axis 2.2224 -6.9761 35.2157 xyz
  end
  begin
    id 13
    name L_Clavicle
    direction -0.231271 -0.0726419 0.970174
    length 4.485
    axis 18.4357 -75.9711 -162.563 xyz
    dof rx ry rz
  end
  begin
    id 14
    name L_UpperArm
    direction -0.917494 0.144359 0.370629
    length 10.1122
    axis 56.0417 -21.7544 171.058 xyz
    dof rx ry rz
  end
  begin
    id 15
    name L_Forearm
    direction -0.496786 0.615074 -0.612281
    length 9.39148
    axis 89.8094 37.7546 128.927 xyz
    dof rx ry rz
  end
  begin
    id 16
    name L_Hand
    direction -0.409932 0.64962 -0.640274
    length 3.66324
    axis -0.424369 32.133 128.52 xyz
    dof rx ry rz
  end
  begin
    id 17
    name L_ThighDummy
    direction -1.84081e-006 1.87549e-006 1
    length 3.13049
    axis 0 0 0 xyz
  end
  begin
    id 18
    name L_Thigh
    direction -0.947739 0.307978 0.083308
    length 17.9961
    axis 173.219 -4.77873 161.998 xyz
    dof rx ry rz
  end
  begin
    id 19
    name L_Calf
    direction -0.728814 -0.684427 0.0197583
    length 13.3367
    axis 167.331 -1.13214 -136.799 xyz
    dof rx ry rz
  end
  begin
    id 20
    name L_Foot
    direction -0.9028 0.418719 0.0981191
    length 5.8674
    axis 163.436 11.5135 -155.37 xyz
    dof rx ry rz
  end
  begin
    id 21
    name L_Toe0
    direction -0.35341 0.886259 0.299411
    length 4.75286
    axis 169.316 -17.4222 111.74 xyz
    dof rx ry rz
  end
  begin
    id 22
    name R_ThighDummy
    direction 9.32778e-007 -8.82053e-007 -1
    length 3.13049
    axis 0 0 0 xyz
  end
  begin
    id 23
    name R_Thigh
    direction -0.925064 0.37528 -0.0585023
    length 17.9961
    axis -178.698 3.35385 157.919 xyz
    dof rx ry rz
  end
  begin
    id 24
    name R_Calf
    direction -0.68969 -0.718776 -0.0876886
    length 13.3367
    axis -160.504 5.03065 -133.817 xyz
    dof rx ry rz
  end
  begin
    id 25
    name R_Foot
    direction -0.857405 0.418858 -0.299022
    length 5.8674
    axis -161.328 4.38911 -154.413 xyz
    dof rx ry rz
  end
  begin
    id 26
    name R_Toe0
    direction -0.100745 0.952789 -0.286433
    length 4.75286
    axis 171.683 16.6445 96.0359 xyz
    dof rx ry rz
  end
:hierarchy
  begin
    root SpineDummy L_ThighDummy R_ThighDummy
    SpineDummy Spine
    Spine Spine1
    Spine1 Neck
    Neck HeadDummy R_ClavicleDummy L_ClavicleDummy
    HeadDummy Head
    R_ClavicleDummy R_Clavicle
    R_Clavicle R_UpperArm
    R_UpperArm R_Forearm
    R_Forearm R_Hand
    L_ClavicleDummy L_Clavicle
    L_Clavicle L_UpperArm
    L_UpperArm L_Forearm
    L_Forearm L_Hand
    L_ThighDummy L_Thigh
    L_Thigh L_Calf
    L_Calf L_Foot
    L_Foot L_Toe0
    R_ThighDummy R_Thigh
    R_Thigh R_Calf
    R_Calf R_Foot
    R_Foot R_Toe0
  end

:SAMPLES-PER-SECOND 30
:FULLY-SPECIFIED
:DEGREES
69
root  -8.53131 35.4715 0.362943 -110.762 11.7708 84.6484
Spine  -9.85075 -6.16444 -11.6836
Spine1  -10.4433 17.3466 -5.34251
Neck  3.97569e-016 0 -2.38542e-015
Head  23.898 9.07394 -4.36351
R_Clavicle  0.388374 -16.7297 1.47703
R_UpperArm  14.4498 -31.1073 59.3509
R_Forearm  7.6923 29.0073 -27.4323
R_Hand  -0.252226 8.77949 -13.5371
L_Clavicle  -0.074091 10.0807 -3.91923
L_UpperArm  9.10623 20.8557 21.1353
L_Forearm  3.25325 -2.09769 -2.41744
L_Hand  0.39871 7.76278 3.62836
L_Thigh  -12.9015 -0.370125 -7.17155
L_Calf  6.05128 -1.26753 8.99798
L_Foot  -1.00704 -2.52234 -2.10814
L_Toe0  0.376567 0.0462445 -6.25071
R_Thigh  2.15268 4.96507 2.78688
R_Calf  -3.1503 7.78522 25.1
R_Foot  1.3383 -2.76882 -15.7354
R_Toe0  -1.41427 -0.248085 -17.2629
70
root  -8.72715 34.4707 1.63686 -110.125 13.6215 85.6244
Spine  -9.15825 -5.1801 -10.9486
Spine1  -9.89221 17.46 -5.51892
Neck  3.97569e-016 0 -2.38542e-015
Head  23.5343 9.74386 -5.00531
R_Clavicle  0.377533 -15.9763 1.36577
R_UpperArm  16.6384 -31.2717 55.7927
R_Forearm  6.98745 28.1359 -26.3774
R_Hand  -0.627302 10.0203 -16.6322
L_Clavicle  -0.039209 9.71758 -4.12175
L_UpperArm  6.07833 23.4024 21.0755
L_Forearm  6.55444 -1.7423 -2.00425
L_Hand  0.358347 7.17861 3.42857
L_Thigh  -13.5992 -2.09885 -4.82451
L_Calf  2.19291 -1.78295 12.9083
L_Foot  -0.759636 -1.7074 -1.80267
L_Toe0  1.6833 -0.0579066 -5.34116
R_Thigh  0.29854 4.79312 3.83731
R_Calf  -2.76607 6.11513 19.404
R_Foot  0.646351 -4.36219 -12.6509
R_Toe0  1.61746 -0.549879 -12.5707
71
root  -8.85613 33.0949 2.80657 -109.495 14.4135 86.6192
Spine  -8.23479 -4.94988 -10.7642
Spine1  -8.69319 17.2196 -3.89137
Neck  3.97569e-016 0 -2.38542e-015
Head  22.3106 10.7014 -4.66014
R_Clavicle  0.360305 -15.3581 1.1711
R_UpperArm  19.7244 -30.4407 51.8607
R_Forearm  7.28053 26.7667 -24.774
R_Hand  -0.898431 10.9164 -18.5583
L_Clavicle  -0.0631879 10.0399 -4.08427
L_UpperArm  3.77541 23.3476 20.7839
L_Forearm  6.35056 -1.10717 -1.26802
L_Hand  0.154182 6.41873 1.66713
L_Thigh  -12.9077 -3.8407 -3.73586
L_Calf  -3.82391 -1.95372 14.2629
L_Foot  0.901997 1.07197 2.90265
L_Toe0  5.85351 -0.604914 0.950861
R_Thigh  -0.876739 3.74764 2.72564
R_Calf  -2.64453 4.97073 15.6473
R_Foot  0.497492 -2.30635 -8.25306
R_Toe0  5.15395 -1.54456 0.423183
72
root  -8.90235 31.6939 3.62379 -107.868 12.0854 87.7187
Spine  -7.45913 -6.66824 -8.27169
Spine1  -7.35422 18.3847 -1.84969
Neck  3.97569e-016 0 -2.38542e-015
Head  20.8875 12.054 -4.05104
R_Clavicle  0.385583 -17.8315 1.20588
R_UpperArm  21.8994 -24.4845 50.1517
R_Forearm  13.3731 24.7413 -22.5079
R_Hand  -0.713264 9.18666 -17.0795
L_Clavicle  -0.409407 15.0909 -3.32981
L_UpperArm  5.05176 16.6401 21.804
L_Forearm  0.990441 -0.464156 -0.523392
L_Hand  -0.131313 6.44059 -1.07505
L_Thigh  -10.0722 -5.34537 -6.93333
L_Calf  -7.55929 -2.06889 15.0883
L_Foot  3.891 3.05356 13.2511
L_Toe0  2.79178 -0.800892 6.81331
R_Thigh  0.216204 1.32247 -2.82151
R_Calf  -4.54523 4.9147 15.5044
R_Foot  0.68614 3.48551 3.99806
R_Toe0  2.29606 -0.866084 1.01364
73
root  -8.90469 30.6881 4.32382 -106.389 10.5969 87.8513
Spine  -6.67488 -9.7813 -7.05542
Spine1  -5.8869 20.9951 -0.318479
Neck  3.97569e-016 0 -2.38542e-015
Head  21.2459 11.9751 -4.25335
R_Clavicle  0.423977 -22.6038 1.71884
R_UpperArm  20.2567 -13.3696 49.6437
R_Forearm  21.038 22.901 -20.5424
R_Hand  -0.29551 5.51201 -12.0336
L_Clavicle  -0.767952 23.1704 -1.60171
L_UpperArm  7.84204 6.97333 24.1258
L_Forearm  -4.77604 -0.920896 -1.0502
L_Hand  -0.344066 7.19269 -2.87401
L_Thigh  -7.93582 -5.92335 -8.6296
L_Calf  -7.78925 -2.06122 15.0088
L_Foot  6.70135 3.19544 24.0643
L_Toe0  1.71663 -0.166354 -0.274673
R_Thigh  3.05869 -0.317979 -5.66625
R_Calf  -7.17196 5.14309 16.2401
R_Foot  0.475084 5.66721 17.4952
R_Toe0  -1.29911 -0.00394435 -10.2105
74
root  -8.94341 30.5012 4.9428 -105.898 10.6287 86.8111
Spine  -5.59959 -12.082 -7.56397
Spine1  -4.40759 21.957 0.539635
Neck  3.97569e-016 0 -2.38542e-015
Head  22.6747 9.25693 -5.05451
R_Clavicle  0.426044 -24.5704 1.95978
R_UpperArm  14.8045 -4.66032 46.5256
R_Forearm  20.3638 23.4124 -21.0781
R_Hand  0.046647 2.73885 -5.30702
L_Clavicle  -0.823035 26.503 -0.598446
L_UpperArm  8.02425 2.77744 26.3369
L_Forearm  -7.09765 -3.17402 -3.65886
L_Hand  -0.297392 8.02658 -2.27672
L_Thigh  -8.44567 -6.43305 -7.52952
L_Calf  -6.716 -2.04573 14.9771
L_Foot  7.75849 3.48346 27.4214
L_Toe0  1.63906 0.0309001 -5.47743
R_Thigh  4.37627 -1.22513 -2.59322
R_Calf  -8.02693 4.09327 12.831
R_Foot  0.0831376 4.94042 18.4842
R_Toe0  -1.10182 -0.100915 -10.4153
75
root  -8.97136 31.1165 5.25759 -105.087 10.3335 85.4636
Spine  -4.48698 -11.3119 -8.11143
Spine1  -3.29117 18.5556 1.13998
Neck  3.97569e-016 0 -2.38542e-015
Head  21.5575 5.50812 -4.48422
R_Clavicle  0.412986 -20.9875 1.05342
R_UpperArm  9.09879 -4.17737 39.8349
R_Forearm  9.09163 26.8162 -24.8227
R_Hand  0.324159 1.53858 0.600802
L_Clavicle  -0.697361 21.9691 -1.11966
L_UpperArm  6.69363 5.694 27.2003
L_Forearm  -8.08442 -6.77669 -7.87567
L_Hand  0.0161941 9.20279 0.37444
L_Thigh  -10.2691 -7.0777 -6.52338
L_Calf  -3.93604 -2.09913 15.5007
L_Foot  6.79635 4.90836 21.4977
L_Toe0  2.55768 -0.223077 -1.7698
R_Thigh  3.11914 -2.02777 1.91468
R_Calf  -6.19033 2.35773 7.36498
R_Foot  1.02114 4.92929 6.42355
R_Toe0  0.796926 -0.262624 1.91423
76
root  -8.89279 32.1497 5.2974 -101.34 10.4861 85.0946
Spine  -3.9674 -6.97142 -8.96848
Spine1  -3.24521 12.3118 1.03596
Neck  3.97569e-016 0 -2.38542e-015
Head  16.0689 3.06853 -0.645732
R_Clavicle  0.246384 -15.2596 -0.597127
R_UpperArm  5.35542 -8.35478 33.0258
R_Forearm  -3.29473 31.0684 -30.0204
R_Hand  0.817612 2.06566 5.46183
L_Clavicle  -0.355562 14.1002 -2.63397
L_UpperArm  7.4319 10.2955 26.177
L_Forearm  -9.78854 -10.6428 -12.5223
L_Hand  0.485216 10.2995 3.7221
L_Thigh  -10.4768 -6.54272 -4.66752
L_Calf  1.57607 -2.0068 14.8554
L_Foot  4.17227 6.14343 10.1294
L_Toe0  4.88774 -1.09038 5.89408
R_Thigh  2.52958 -1.92013 4.28551
R_Calf  -3.9424 2.00628 6.20748
R_Foot  1.65195 4.14432 -6.21173
R_Toe0  2.22195 -0.825781 6.75198
77
root  -8.73563 33.1482 5.21177 -94.581 10.9546 86.2986
Spine  -3.9178 -1.25873 -8.96936
Spine1  -3.90768 7.18602 -1.27341
Neck  3.97569e-016 0 -2.38542e-015
Head  8.70575 1.95198 5.08068
R_Clavicle  -0.0288378 -10.4892 -2.06903
R_UpperArm  2.26398 -11.466 28.8909
R_Forearm  -10.2513 34.4888 -34.7796
R_Hand  1.66402 3.55251 10.5382
L_Clavicle  0.104405 7.72249 -4.26689
L_UpperArm  10.612 12.4535 23.8545
L_Forearm  -10.5001 -13.8854 -16.5757
L_Hand  0.795023 10.0776 6.0349
L_Thigh  -8.74372 -4.66714 -1.85939
L_Calf  4.64717 -1.80426 13.2236
L_Foot  1.7473 6.34041 0.744124
L_Toe0  5.80232 -1.30445 5.62399
R_Thigh  3.68264 -0.980086 4.12795
R_Calf  -3.76486 2.70162 8.40068
R_Foot  2.13894 5.83922 -7.33577
R_Toe0  -1.42201 0.0961804 -8.1212
78
root  -8.55269 33.7868 5.11686 -88.2743 10.8126 87.5486
Spine  -3.20997 2.66904 -7.75049
Spine1  -3.76817 4.35641 -4.97748
Neck  3.97569e-016 0 -2.38542e-015
Head  2.36277 0.333626 9.11494
R_Clavicle  -0.387002 -4.90787 -3.10442
R_UpperArm  0.390977 -12.9147 25.991
R_Forearm  -14.4104 36.793 -38.3851
R_Hand  2.3288 4.12893 15.3066
L_Clavicle  0.588523 1.97629 -5.23207
L_UpperArm  13.3273 13.4413 19.7842
L_Forearm  -8.64677 -15.906 -19.2013
L_Hand  0.699667 8.52642 5.92546
L_Thigh  -8.03823 -3.0106 0.832292
L_Calf  0.418288 -1.63718 11.8668
L_Foot  1.16739 6.39537 -1.57825
L_Toe0  3.28011 -0.175627 -2.77711
R_Thigh  2.98322 0.67918 3.14201
R_Calf  -4.80993 3.77203 11.8033
R_Foot  2.04868 6.43033 -3.2325
R_Toe0  -1.84117 -0.298394 -18.2165
79
root  -8.38342 34.0988 5.03544 -83.9746 10.0799 87.4086
Spine  -1.91367 4.03881 -6.18623
Spine1  -2.66819 2.41403 -7.36824
Neck  3.97569e-016 0 -2.38542e-015
Head  -2.86599 -1.39903 9.78705
R_Clavicle  -0.838418 2.0991 -3.75403
R_UpperArm  0.791104 -13.1292 22.4449
R_Forearm  -17.8661 38.1094 -40.6303
R_Hand  2.50989 4.18752 16.8484
L_Clavicle  1.03737 -5.13067 -4.92668
L_UpperArm  12.8389 14.966 13.4277
L_Forearm  -5.63473 -16.4994 -19.9901
L_Hand  0.436893 6.67867 4.27036
L_Thigh  -8.50234 -2.76362 2.37765
L_Calf  -6.19024 -1.82736 13.2716
L_Foot  1.77018 7.10963 0.0997267
L_Toe0  0.248831 0.0601564 -6.48339
R_Thigh  -0.515165 1.70473 2.52555
R_Calf  -6.14939 4.71923 14.8317
R_Foot  2.24624 7.53635 -1.15909
R_Toe0  -1.68021 -0.28346 -17.4202
